<svg aria-hidden="true" style="position:absolute;width:0;height:0" xmlns="http://www.w3.org/2000/svg" overflow="hidden"><defs><symbol id="icon-facebook" viewBox="0 0 32 32"><path fill="var(--color1, #035755)" d="M24.036.442c-.505-.075-2.245-.225-4.265-.225-4.228 0-7.128 2.582-7.128 7.315v4.078h-4.77v5.537h4.77v14.199h5.724V17.147h4.752l.73-5.537h-5.481V8.074c0-1.59.43-2.694 2.731-2.694h2.937V.441z"/></symbol><symbol id="icon-logo" viewBox="0 0 32 32"><path fill="var(--color2, #fb4c47)" d="M22.817 16c0 .533.432.966.966.966h2.197c1.118 0 2.223.256 3.221.76.298.15.639.226 1.001.201a1.94 1.94 0 001.795-1.8 1.932 1.932 0 00-2.766-1.867c-1.017.491-2.122.775-3.252.775h-2.196a.966.966 0 00-.966.966zM9.729 22.27a.798.798 0 00-1.129 0l-1.284 1.284a5.907 5.907 0 01-2.327 1.439 1.592 1.592 0 00-.703.467 1.596 1.596 0 102.711 1.576 6.204 6.204 0 011.448-2.354l1.284-1.284a.798.798 0 000-1.129zM21.311 10.689a.837.837 0 001.182 0l1.344-1.344a6.195 6.195 0 012.435-1.506 1.66 1.66 0 00.735-.489 1.67 1.67 0 10-2.837-1.649c-.322.923-.824 1.772-1.515 2.463l-1.343 1.344a.837.837 0 000 1.182z"/><path fill="var(--color3, #ffa2a1)" d="M15.999 22.816a.966.966 0 00-.966.966v2.197a7.144 7.144 0 01-.76 3.221 1.93 1.93 0 00-.201 1.001 1.94 1.94 0 001.8 1.795 1.932 1.932 0 001.867-2.766c-.491-1.017-.775-2.122-.775-3.252v-2.196a.966.966 0 00-.966-.966z"/><path fill="var(--color2, #fb4c47)" d="M17.741 29.23c-.491-1.017-.775-2.122-.775-3.252v-2.196a.966.966 0 00-1.932 0v2.196c0 1.13.284 2.234.775 3.252a1.931 1.931 0 01-.773 2.51 1.932 1.932 0 002.705-2.51z"/><path fill="var(--color4, #ff807e)" d="M8.792 12.011a3.155 3.155 0 100-6.31 3.155 3.155 0 000 6.31z"/><path fill="var(--color2, #fb4c47)" d="M8.791 5.701a3.15 3.15 0 00-.966.151 3.155 3.155 0 010 6.008 3.155 3.155 0 10.966-6.159z"/><path fill="var(--color5, #ffbfbe)" d="M16 26.302c5.689 0 10.302-4.612 10.302-10.302S21.69 5.698 16 5.698C10.311 5.698 5.698 10.31 5.698 16S10.31 26.302 16 26.302z"/><path fill="var(--color6, #ffa2a2)" d="M16.001 5.698c-.326 0-.648.016-.966.045 5.237.487 9.336 4.893 9.336 10.256s-4.099 9.769-9.336 10.256c.318.03.64.045.966.045 5.69 0 10.302-4.612 10.302-10.302S21.691 5.696 16.001 5.696z"/><path fill="var(--color3, #ffa2a1)" d="M19.862 14.571a2.093 2.093 0 100-4.185 2.093 2.093 0 000 4.185z"/><path fill="var(--color4, #ff807e)" d="M19.864 10.386a2.09 2.09 0 00-.966.236 2.093 2.093 0 010 3.712 2.093 2.093 0 10.966-3.949zM12.317 21.441a1.416 1.416 0 100-2.832 1.416 1.416 0 000 2.832z"/><path fill="var(--color2, #fb4c47)" d="M23.008 25.572a1.932 1.932 0 100-3.864 1.932 1.932 0 000 3.864z"/><path fill="var(--color4, #ff807e)" d="M23.008 21.709c-.352 0-.682.095-.966.259a1.931 1.931 0 010 3.346 1.932 1.932 0 10.966-3.605z"/><path fill="var(--color2, #fb4c47)" d="M9.183 16a.966.966 0 01-.966.966H6.021a7.144 7.144 0 00-3.221.76 1.92 1.92 0 01-1.001.201 1.94 1.94 0 01-1.795-1.8A1.932 1.932 0 012.77 14.26c1.017.491 2.122.775 3.252.775h2.196c.533 0 .966.432.966.966z"/><path fill="var(--color3, #ffa2a1)" d="M15.999 9.183a.966.966 0 00.966-.966V6.021c0-1.118.256-2.223.76-3.221a1.92 1.92 0 00.201-1.001 1.94 1.94 0 00-1.8-1.795 1.932 1.932 0 00-1.867 2.766c.491 1.017.775 2.122.775 3.252v2.196c0 .533.432.966.966.966z"/><path fill="var(--color2, #fb4c47)" d="M17.927 1.799a1.94 1.94 0 00-1.8-1.795c-.4-.026-.776.071-1.094.256.541.315.919.884.963 1.539.024.361-.051.703-.201 1.001a7.144 7.144 0 00-.76 3.221v2.196a.966.966 0 001.932 0V6.021c0-1.118.256-2.223.76-3.221a1.92 1.92 0 00.201-1.001z"/><path fill="var(--color4, #ff807e)" d="M30.07 14.069c-.3 0-.584.069-.838.191l-.135.063a1.93 1.93 0 01.969 1.803 1.936 1.936 0 01-.968 1.547c.035.017.07.033.104.051.297.15.639.225 1 .201a1.93 1.93 0 00-.132-3.856z"/></symbol><symbol id="icon-twitter" viewBox="0 0 32 32"><path fill="var(--color1, #035755)" d="M31.828 6.643a12.705 12.705 0 01-3.654.982 6.326 6.326 0 002.789-3.496 12.487 12.487 0 01-4.027 1.532A6.332 6.332 0 0022.3 3.657a6.342 6.342 0 00-6.345 6.345c0 .491.059.982.157 1.454A18.034 18.034 0 013.03 4.817a6.297 6.297 0 00-.864 3.202 6.34 6.34 0 002.829 5.284 6.394 6.394 0 01-2.868-.805v.079a6.345 6.345 0 005.088 6.227 6.73 6.73 0 01-1.67.216 7.99 7.99 0 01-1.198-.098 6.356 6.356 0 005.932 4.4 12.706 12.706 0 01-7.877 2.711c-.53 0-1.021-.02-1.532-.079a17.93 17.93 0 009.743 2.848c11.668 0 18.052-9.664 18.052-18.052 0-.275 0-.55-.02-.825a13.633 13.633 0 003.182-3.28z"/></symbol><symbol id="icon-unknown" viewBox="0 0 32 32"><path fill="var(--color1, #035755)" d="M30.649 9.146c.187-3.966-1.291-6.005-4.415-6.099-4.228-.131-7.09 2.245-8.587 7.146.786-.318 1.534-.486 2.264-.486 1.534 0 2.208.861 2.039 2.6-.094 1.048-.767 2.582-2.039 4.602-1.291 2.02-2.245 3.012-2.881 3.012-.823 0-1.553-1.553-2.245-4.658-.225-.898-.655-3.236-1.235-6.978-.561-3.461-2.002-5.07-4.378-4.845-1.01.094-2.526.973-4.508 2.731C3.186 7.462 1.708 8.809.212 10.137l1.44 1.833c1.366-.954 2.151-1.422 2.376-1.422 1.048 0 2.039 1.628 2.937 4.901.823 3.012 1.646 6.024 2.469 9.017 1.216 3.274 2.713 4.92 4.49 4.92 2.881 0 6.361-2.694 10.514-8.063 4.003-5.163 6.08-9.223 6.211-12.179z"/></symbol><symbol id="icon-youtube" viewBox="0 0 32 32"><path fill="var(--color7, #f44a45)" d="M13.33 20.162V11.57l8.267 4.321-8.267 4.27zm3.16-14.724c-6.439 0-10.71.307-10.71.307-.598.068-1.913.068-3.075 1.298 0 0-.939.922-1.213 3.04-.325 2.477-.307 4.953-.307 4.953v2.323s-.017 2.477.307 4.953c.273 2.101 1.213 3.04 1.213 3.04 1.161 1.213 2.699 1.179 3.382 1.298 0 0 2.443.239 10.402.307 6.439 0 10.71-.324 10.71-.324.598-.068 1.913-.068 3.075-1.281 0 0 .939-.939 1.213-3.04.325-2.477.307-4.953.307-4.953v-2.323s.017-2.477-.307-4.953c-.273-2.118-1.213-3.04-1.213-3.04-1.161-1.23-2.477-1.23-3.075-1.298 0 0-4.27-.307-10.71-.307z"/></symbol></defs></svg>